<svg width="112" height="112" viewBox="0 0 112 112" fill="none" xmlns="http://www.w3.org/2000/svg">
<circle cx="56" cy="56" r="56" fill="white"/>
<path d="M26.666 90.6668V18.6667H60.3123C75.7464 18.6667 88.5052 24.0153 88.5052 37.2839C88.5052 45.2039 83.875 51.0667 75.7464 53.2267C83.9779 54.6667 90.666 60.221 90.666 69.3753C90.666 82.9525 80.0679 90.6668 59.2834 90.6668H26.666ZM59.9007 73.2839C65.5599 73.2839 68.1322 71.4325 68.1322 67.7296C68.1322 63.9239 65.5599 62.2782 59.9007 62.2782H47.9651V73.2839H59.9007ZM59.1805 46.3353C63.8107 46.3353 66.2802 44.7925 66.2802 41.0896C66.2802 37.6953 63.9136 36.0496 59.1805 36.0496H47.9651V46.3353H59.1805Z" fill="black"/>
</svg>
