<svg width="48" height="48" viewBox="0 0 48 48" fill="none" xmlns="http://www.w3.org/2000/svg">
<circle cx="24" cy="24" r="24" fill="#F5F5F5"/>
<path fill-rule="evenodd" clip-rule="evenodd" d="M26.0069 4C26.4214 4.0411 26.8323 4.09479 27.239 4.16069C27.0113 5.20241 27.6413 6.24852 28.6818 6.52732C29.7053 6.80156 30.756 6.23426 31.0992 5.24958L31.1161 5.19714C31.5047 5.34432 31.8877 5.5032 32.2644 5.67336C31.7737 6.62171 32.1114 7.79569 33.0445 8.33443C33.9601 8.86302 35.1186 8.58944 35.7063 7.73176L35.7371 7.68225C36.0735 7.9247 36.4022 8.1773 36.7226 8.4396C36.0067 9.2292 36.03 10.4483 36.7909 11.2091C37.5345 11.9527 38.7158 11.9919 39.5055 11.3265L39.5604 11.2774C39.8227 11.5978 40.0753 11.9265 40.3178 12.2629C39.421 12.8383 39.1272 14.0229 39.6656 14.9555C40.1942 15.871 41.3343 16.2134 42.2721 15.7644L42.3266 15.7356C42.4968 16.1123 42.6557 16.4953 42.8029 16.8839C41.7854 17.2081 41.1937 18.2772 41.4727 19.3182C41.7469 20.3417 42.7636 20.968 43.788 20.7729L43.8393 20.761C43.9052 21.1677 43.9589 21.5786 44 21.9931C42.9357 22.0443 42.089 22.9233 42.089 24C42.089 25.0596 42.909 25.9277 43.9489 26.0044L44 26.0069C43.9589 26.4214 43.9052 26.8323 43.8393 27.239C42.7976 27.0113 41.7515 27.6413 41.4727 28.6818C41.1984 29.7053 41.7657 30.756 42.7504 31.0992L42.8029 31.1161C42.6557 31.5047 42.4968 31.8877 42.3266 32.2644C41.3783 31.7737 40.2043 32.1114 39.6656 33.0445C39.137 33.9601 39.4106 35.1186 40.2682 35.7063L40.3178 35.7371C40.0753 36.0735 39.8227 36.4022 39.5604 36.7226C38.7708 36.0067 37.5517 36.03 36.7909 36.7909C36.0473 37.5345 36.0081 38.7158 36.6735 39.5055L36.7226 39.5604C36.4022 39.8227 36.0735 40.0753 35.7371 40.3178C35.1617 39.421 33.9771 39.1272 33.0445 39.6656C32.129 40.1942 31.7866 41.3343 32.2355 42.2721L32.2644 42.3266C31.8877 42.4968 31.5047 42.6557 31.1161 42.8029C30.7919 41.7854 29.7228 41.1937 28.6818 41.4727C27.6583 41.7469 27.032 42.7636 27.2271 43.788L27.239 43.8393C26.8323 43.9052 26.4214 43.9589 26.0069 44C25.9557 42.9357 25.0767 42.089 24 42.089C22.9404 42.089 22.0723 42.909 21.9956 43.9489L21.9931 44C21.5786 43.9589 21.1677 43.9052 20.761 43.8393C20.9887 42.7976 20.3587 41.7515 19.3182 41.4727C18.2947 41.1984 17.244 41.7657 16.9008 42.7504L16.8839 42.8029C16.4953 42.6557 16.1123 42.4968 15.7356 42.3266C16.2263 41.3783 15.8886 40.2043 14.9555 39.6656C14.0399 39.137 12.8814 39.4106 12.2937 40.2682L12.2629 40.3178C11.9265 40.0753 11.5978 39.8227 11.2774 39.5604C11.9933 38.7708 11.97 37.5517 11.2091 36.7909C10.4655 36.0473 9.28421 36.0081 8.49454 36.6735L8.4396 36.7226C8.1773 36.4022 7.9247 36.0735 7.68225 35.7371C8.579 35.1617 8.87283 33.9771 8.33443 33.0445C7.80584 32.129 6.66572 31.7866 5.72791 32.2355L5.67336 32.2644C5.5032 31.8877 5.34432 31.5047 5.19714 31.1161C6.21461 30.7919 6.80625 29.7228 6.52732 28.6818C6.25309 27.6583 5.23643 27.032 4.21203 27.2271L4.16069 27.239C4.09479 26.8323 4.0411 26.4214 4 26.0069C5.0641 25.9559 5.91096 25.0768 5.91096 24C5.91096 22.9404 5.09104 22.0723 4.05106 21.9956L4 21.9931C4.0411 21.5786 4.09479 21.1677 4.16069 20.761C5.20241 20.9887 6.24852 20.3587 6.52732 19.3182C6.80156 18.2947 6.23426 17.244 5.24958 16.9008L5.19714 16.8839C5.34432 16.4953 5.5032 16.1123 5.67336 15.7356C6.62171 16.2263 7.79569 15.8886 8.33443 14.9555C8.86302 14.0399 8.58944 12.8814 7.73176 12.2937L7.68225 12.2629C7.9247 11.9265 8.1773 11.5978 8.4396 11.2774C9.2292 11.9933 10.4483 11.97 11.2091 11.2091C11.9527 10.4655 11.9919 9.28421 11.3265 8.49454L11.2774 8.4396C11.5978 8.1773 11.9265 7.9247 12.2629 7.68225C12.8383 8.579 14.0229 8.87283 14.9555 8.33443C15.871 7.80584 16.2134 6.66572 15.7644 5.72791L15.7356 5.67336C16.1123 5.5032 16.4953 5.34432 16.8839 5.19714C17.2081 6.21461 18.2772 6.80625 19.3182 6.52732C20.3417 6.25309 20.968 5.23643 20.7729 4.21203L20.761 4.16069C21.1677 4.09479 21.5786 4.0411 21.9931 4C22.0441 5.0641 22.9232 5.91096 24 5.91096C25.0596 5.91096 25.9277 5.09104 26.0044 4.05106L26.0069 4ZM30.3873 36.5358C29.4904 36.9928 29.1279 38.0977 29.5351 39.0574L29.5505 39.0925C29.1627 39.2356 28.7722 39.3628 28.3796 39.4744C28.1617 38.4367 27.2076 37.7366 26.2009 37.896C25.209 38.0532 24.5236 38.9881 24.6105 40.0238L24.6154 40.0676C27.6925 39.9518 30.5483 38.9713 32.9469 37.3621C32.4181 36.4437 31.2951 36.0733 30.3873 36.5358ZM15.0794 37.3158L15.0531 37.3621C17.4514 38.9711 20.3069 39.9516 23.3836 40.0676C23.4971 39.0165 22.806 38.0555 21.7991 37.896C20.8096 37.7393 19.8711 38.4129 19.6308 39.4207L19.621 39.4715C19.2256 39.3594 18.8345 39.2324 18.4487 39.0906C18.8804 38.1232 18.5199 36.998 17.6127 36.5358C16.7201 36.081 15.6193 36.4316 15.0794 37.3158ZM11.3953 33.9125L11.3629 33.943C12.1514 34.9438 13.0562 35.8486 14.057 36.6371C14.7666 35.8527 14.7723 34.6693 14.0515 33.9485C13.3414 33.2383 12.1821 33.2333 11.3953 33.9125ZM33.9485 33.9485C33.2383 34.6586 33.2333 35.8179 33.9125 36.6047L33.943 36.6371C34.9438 35.8486 35.8486 34.9438 36.6371 33.943C35.8527 33.2334 34.6693 33.2277 33.9485 33.9485ZM24 34.0495C22.8998 34.0495 21.9962 34.8513 21.8984 35.8748C23.285 36.1198 24.7088 36.1214 26.1006 35.8767C26.0044 34.8518 25.1006 34.0495 24 34.0495ZM28.0875 33.1806C27.0815 33.6285 26.5822 34.7301 26.9109 35.7056L27.139 35.6463C28.5175 35.276 29.8462 34.6557 31.0548 33.7817L30.7504 33.9944C30.2445 33.0982 29.0927 32.7331 28.0875 33.1806ZM13.1523 29.2745C13.215 29.403 13.2798 29.5302 13.3468 29.6559L13.162 29.293L13.2366 29.4451C13.7075 30.3746 14.3076 31.2579 15.0381 32.0693C16.6104 33.8154 18.577 34.9953 20.6814 35.5954C21.0447 34.6329 20.5841 33.515 19.5946 33.0324C18.6054 32.5499 17.4414 32.8749 16.905 33.7526C16.5686 33.5073 16.2447 33.2446 15.9353 32.9661C16.6827 32.2596 16.7582 31.054 16.0809 30.1871C15.4031 29.3195 14.2138 29.1014 13.3468 29.6559L13.162 29.293L13.1523 29.2745ZM33.751 26.4312C33.4846 27.4995 34.045 28.571 35.0159 28.9127C34.8464 29.2939 34.6567 29.6652 34.4489 30.0247C33.601 29.44 32.4057 29.6167 31.6983 30.4597C30.9914 31.3022 31.0245 32.5093 31.745 33.2422L31.4357 33.4948C31.6513 33.3256 31.8626 33.1479 32.0693 32.9619C34.4893 30.7829 35.8216 27.8465 36.0304 24.8356C35.0137 24.6809 34.0171 25.3636 33.751 26.4312ZM7.97615 24.6105L7.93241 24.6154C8.04693 27.6586 9.00717 30.4853 10.5849 32.8674L10.6384 32.9476C11.5563 32.418 11.9267 31.295 11.4642 30.3873C11.0072 29.4904 9.90227 29.1279 8.94255 29.5351L8.90791 29.5514C8.76462 29.1634 8.63728 28.7725 8.52563 28.3796C9.56333 28.1617 10.2634 27.2076 10.104 26.2009C9.94685 25.209 9.01192 24.5236 7.97615 24.6105ZM37.896 26.2009C37.7393 27.1904 38.4129 28.1289 39.4207 28.3692L39.4715 28.379C39.3594 28.7744 39.2324 29.1655 39.0906 29.5513C38.1232 29.1196 36.998 29.4801 36.5358 30.3873C36.081 31.2799 36.4316 32.3807 37.3158 32.9206L37.3621 32.9469C38.9711 30.5486 39.9516 27.6931 40.0676 24.6164C39.0165 24.5029 38.0555 25.194 37.896 26.2009ZM24 29.9292C22.9957 29.9292 22.1725 30.7046 22.0963 31.6894L22.0914 31.8117L21.8072 31.7369C22.5042 31.9341 23.2398 32.0396 24 32.0396C24.7602 32.0396 25.4958 31.9341 26.1928 31.7369L25.9086 31.8117C25.8945 30.7693 25.0454 29.9292 24 29.9292ZM17.8913 29.0709L17.8269 29.1508C18.6475 30.1332 19.6981 30.9167 20.896 31.4185C21.4943 30.5677 21.3005 29.3913 20.4558 28.7776C19.6476 28.1904 18.5334 28.3292 17.8913 29.0709ZM27.5442 28.7776C26.7359 29.3648 26.5236 30.4674 27.0306 31.3073L27.104 31.4185C28.2578 30.9351 29.2749 30.1905 30.0815 29.2586L30.1722 29.1518C29.5438 28.3397 28.3802 28.1702 27.5442 28.7776ZM24 18.9753C21.2249 18.9753 18.9753 21.2249 18.9753 24C18.9753 26.7751 21.2249 29.0247 24 29.0247C26.7751 29.0247 29.0247 26.7751 29.0247 24C29.0247 21.2249 26.7751 18.9753 24 18.9753ZM12.1005 24.4019L11.9474 24.4132C11.9991 25.9426 12.3405 27.4669 12.9762 28.8972L12.8181 28.5244C13.8014 28.218 14.3991 27.1665 14.1701 26.0894C13.9528 25.067 13.0646 24.3687 12.1005 24.4019ZM17.1093 28.144C18.0679 27.792 18.5836 26.742 18.2654 25.7628C17.9551 24.8076 16.9633 24.2643 16.0031 24.4962L15.976 24.504C16.057 25.8268 16.4606 27.0676 17.1093 28.144ZM29.7346 25.7628C29.4242 26.7179 29.9073 27.7405 30.8203 28.1172L30.8907 28.144C31.4991 27.1345 31.8919 25.9804 32.0055 24.7454L32.024 24.504C31.0562 24.2537 30.048 24.7983 29.7346 25.7628ZM24 19.9802C26.2201 19.9802 28.0198 21.7799 28.0198 24C28.0198 26.2201 26.2201 28.0198 24 28.0198C21.7799 28.0198 19.9802 26.2201 19.9802 24C19.9802 21.7799 21.7799 19.9802 24 19.9802ZM24 20.9852C22.3349 20.9852 20.9852 22.3349 20.9852 24C20.9852 25.6651 22.3349 27.0148 24 27.0148C25.6651 27.0148 27.0148 25.6651 27.0148 24C27.0148 22.3349 25.6651 20.9852 24 20.9852ZM35.1819 19.4756C34.1986 19.782 33.6009 20.8335 33.8299 21.9106C34.0586 22.9865 35.0303 23.7035 36.0515 23.5869L36.0547 23.6547C36.0111 22.1079 35.6713 20.565 35.0305 19.1179L35.0183 19.091C35.0749 19.218 35.1295 19.3462 35.1819 19.4756ZM37.3621 15.0531C36.4437 15.5819 36.0733 16.7049 36.5358 17.6127C36.9928 18.5096 38.0977 18.8721 39.0574 18.4649L39.0925 18.4495C39.2356 18.8373 39.3628 19.2278 39.4744 19.6204C38.4367 19.8383 37.7366 20.7924 37.896 21.7991C38.0532 22.791 38.9881 23.4764 40.0238 23.3895L40.0676 23.3846C39.9518 20.3075 38.9713 17.4517 37.3621 15.0531ZM7.93245 23.3836C8.98345 23.4971 9.94447 22.806 10.104 21.7991C10.2607 20.8096 9.58708 19.8711 8.57933 19.6308L8.52853 19.621C8.64056 19.2256 8.76763 18.8345 8.90944 18.4487C9.87682 18.8804 11.002 18.5199 11.4642 17.6127C11.919 16.7201 11.5684 15.6193 10.6842 15.0794L10.6379 15.0531C9.02885 17.4514 8.04842 20.3069 7.93245 23.3836ZM30.3467 19.0643L30.5719 19.368C30.6475 19.4751 30.7206 19.5841 30.791 19.6949C29.8968 20.0808 29.4276 21.0915 29.7346 22.0362C30.0294 22.9436 30.9393 23.4793 31.8527 23.3318L32.0095 23.2993C31.8723 21.7105 31.273 20.2538 30.3467 19.0643ZM15.9905 23.2993C16.9556 23.5389 17.9539 22.9951 18.2654 22.0362C18.5724 21.0915 18.1032 20.0808 17.2094 19.6944L17.4188 19.3812C16.6261 20.5086 16.1158 21.8489 15.9905 23.2993ZM15.9307 15.0381C13.5107 17.2171 12.1784 20.1535 11.9696 23.1644C12.9858 23.3195 13.9828 22.6366 14.249 21.5688C14.5154 20.5005 13.955 19.429 12.9841 19.0873C13.1537 18.706 13.3435 18.3346 13.5513 17.9749C14.399 18.56 15.5943 18.3833 16.3017 17.5403C17.0087 16.6977 16.9755 15.4906 16.2548 14.7577L16.5653 14.5045C16.3494 14.6739 16.1377 14.8518 15.9307 15.0381ZM20.998 16.5407L20.9252 16.5694C19.6463 17.0992 18.5338 17.9495 17.688 19.0202L17.9117 18.7494C18.5554 19.4724 19.6556 19.6028 20.4558 19.0214C21.2485 18.4455 21.4679 17.374 20.998 16.5407ZM27.0038 16.5404C26.5321 17.374 26.7515 18.4455 27.5442 19.0214C28.344 19.6025 29.4436 19.4726 30.0886 18.751C29.2746 17.8064 28.2443 17.0539 27.0748 16.5694L27.0038 16.5404ZM27.3186 12.4046C26.9553 13.3671 27.4159 14.485 28.4054 14.9676C29.3946 15.4501 30.5586 15.1251 31.095 14.2474C31.4314 14.4927 31.7553 14.7554 32.0647 15.0339C31.3173 15.7404 31.2418 16.946 31.9191 17.8129C32.5969 18.6805 33.7862 18.8986 34.6532 18.3441L34.8314 18.6911C34.3507 17.7117 33.7281 16.7817 32.9619 15.9307C31.3896 14.1846 29.423 13.0047 27.3186 12.4046ZM24 15.9604C23.3473 15.9604 22.7127 16.0382 22.105 16.185C22.2149 17.1338 23.0215 17.8698 24 17.8698C24.9541 17.8698 25.7448 17.17 25.8867 16.2557L25.895 16.185C25.2873 16.0382 24.6527 15.9604 24 15.9604ZM17.0219 14.1632L17.2496 14.0056C17.7555 14.9018 18.9073 15.2669 19.9125 14.8194C20.9182 14.3716 21.4176 13.2704 21.0894 12.2952L21.4679 12.2074C19.9025 12.542 18.3872 13.1922 17.0219 14.1632ZM33.943 11.3629C33.2334 12.1473 33.2277 13.3307 33.9485 14.0515C34.6586 14.7617 35.8179 14.7667 36.6047 14.0875L36.6371 14.057C35.8486 13.0562 34.9438 12.1514 33.943 11.3629ZM11.3629 14.057C12.1473 14.7666 13.3307 14.7723 14.0515 14.0515C14.7617 13.3414 14.7667 12.1821 14.0875 11.3953L14.057 11.3629C13.0562 12.1514 12.1514 13.0562 11.3629 14.057ZM21.8994 12.1233C21.995 13.1476 22.8991 13.9505 24 13.9505C25.0596 13.9505 25.9368 13.2068 26.0875 12.2376L26.1008 12.1245C24.7143 11.8802 23.2909 11.8786 21.8994 12.1233ZM15.1326 10.5849L15.0524 10.6384C15.5819 11.5563 16.7049 11.9267 17.6127 11.4642C18.5096 11.0072 18.8721 9.90227 18.4649 8.94255L18.4486 8.90791C18.8366 8.76462 19.2275 8.63728 19.6204 8.52563C19.8383 9.56333 20.7924 10.2634 21.7991 10.104C22.791 9.94685 23.4764 9.01192 23.3895 7.97615L23.3846 7.93241C20.3414 8.04693 17.5147 9.00717 15.1326 10.5849ZM24.6164 7.93245C24.5029 8.98345 25.194 9.94447 26.2009 10.104C27.1904 10.2607 28.1289 9.58708 28.3692 8.57933L28.379 8.52853C28.7744 8.64056 29.1655 8.76763 29.5513 8.90944C29.1196 9.87682 29.4801 11.002 30.3873 11.4642C31.2799 11.919 32.3807 11.5684 32.9206 10.6842L32.9469 10.6379C30.5486 9.02885 27.6931 8.04842 24.6164 7.93245Z" fill="black"/>
</svg>
