<svg width="231" height="23" viewBox="0 0 231 23" fill="none" xmlns="http://www.w3.org/2000/svg">
<path d="M221.699 17.1097C216.929 17.1097 213.299 13.5397 213.299 8.76969C213.299 3.99969 216.899 0.429688 221.699 0.429688C226.499 0.429688 230.099 3.99969 230.099 8.76969C230.099 13.5697 226.499 17.1097 221.699 17.1097ZM221.699 14.4697C224.819 14.4697 227.219 12.1297 227.219 8.76969C227.219 5.40969 224.819 3.06969 221.699 3.06969C218.579 3.06969 216.179 5.40969 216.179 8.76969C216.179 12.1297 218.579 14.4697 221.699 14.4697ZM218.459 12.7597V4.59969H222.209C224.129 4.59969 225.299 5.46969 225.299 6.99969C225.299 8.10969 224.669 8.73969 223.889 8.94969C224.639 9.15969 225.119 9.60969 225.119 10.5997V12.7597H222.599V11.1097C222.599 10.2997 222.299 10.1197 221.609 10.1197H220.919V12.7597H218.459ZM222.029 7.98969C222.479 7.98969 222.839 7.80969 222.839 7.38969C222.839 6.99969 222.479 6.81969 222.029 6.81969H220.919V7.98969H222.029Z" fill="black"/>
<path d="M196.061 21.9994V7.11937H202.001V7.47937C202.001 7.80937 202.001 8.13938 201.911 8.61938C202.541 7.65938 204.041 6.60938 206.321 6.60938C209.861 6.60938 211.541 9.15937 211.541 12.5494V21.9994H205.541V13.4194C205.541 11.9194 204.971 11.1994 203.891 11.1994C202.781 11.1994 202.061 11.9494 202.061 13.3294V21.9994H196.061Z" fill="black"/>
<path d="M186.439 22.5694C181.609 22.5694 178.189 19.8694 178.189 14.5894C178.189 9.51938 181.669 6.60938 186.439 6.60938C191.269 6.60938 194.689 9.51938 194.689 14.5894C194.689 19.8694 191.269 22.5694 186.439 22.5694ZM186.439 17.9794C187.789 17.9794 188.599 16.6894 188.599 14.5894C188.599 12.4294 187.789 11.1994 186.439 11.1994C185.089 11.1994 184.279 12.4294 184.279 14.5894C184.279 16.6894 185.089 17.9794 186.439 17.9794Z" fill="black"/>
<path d="M170.805 22V7.12H176.805V22H170.805ZM170.715 5.56V1H176.955V5.56H170.715Z" fill="black"/>
<path d="M166.408 22.3281C162.058 22.3281 160.108 20.1381 160.108 16.1481V11.7381H157.258V7.11813H160.108V2.07812H166.048V7.11813H169.438V11.7381H166.048V15.3681C166.048 16.7181 166.468 17.5881 168.148 17.5881C168.418 17.5881 168.778 17.5581 169.078 17.4981V22.0581C168.478 22.2081 167.398 22.3281 166.408 22.3281Z" fill="black"/>
<path d="M146.8 22.5694C144.16 22.5694 141.58 20.8294 141.58 17.6194C141.58 14.2294 144.58 13.1494 147.64 12.8494L149.71 12.6394C150.79 12.5194 151.12 12.2494 151.12 11.7094C151.12 11.0794 150.58 10.6594 149.68 10.6594C148.78 10.6594 148.09 11.1094 147.97 12.0094H142.03C142.3 8.88938 145.15 6.60938 149.65 6.60938C154.6 6.60938 156.79 9.00938 156.79 13.2094V21.9994H151.18V21.6394C151.18 21.1894 151.21 20.7994 151.3 20.4394C150.43 21.7894 148.87 22.5694 146.8 22.5694ZM149.02 18.4894C150.34 18.4894 151.12 17.6494 151.12 16.3294V15.4894C150.91 15.6994 150.52 15.8194 149.71 15.9394L149.11 16.0294C148.12 16.1794 147.55 16.5694 147.55 17.2594C147.55 18.0094 148.09 18.4894 149.02 18.4894Z" fill="black"/>
<path d="M130.042 22.0011L124.582 7.12109H131.092L132.892 13.5111C133.192 14.5311 133.372 15.2511 133.492 16.0011C133.612 15.2511 133.792 14.5311 134.062 13.5111L135.832 7.12109H142.042L137.092 22.0011H130.042Z" fill="black"/>
<path d="M116.988 22.5694C112.158 22.5694 108.738 19.8694 108.738 14.5894C108.738 9.51938 112.218 6.60938 116.988 6.60938C121.818 6.60938 125.238 9.51938 125.238 14.5894C125.238 19.8694 121.818 22.5694 116.988 22.5694ZM116.988 17.9794C118.338 17.9794 119.148 16.6894 119.148 14.5894C119.148 12.4294 118.338 11.1994 116.988 11.1994C115.638 11.1994 114.828 12.4294 114.828 14.5894C114.828 16.6894 115.638 17.9794 116.988 17.9794Z" fill="black"/>
<path d="M92.0078 21.9994V7.11937H97.9478V7.47937C97.9478 7.80937 97.9478 8.13938 97.8578 8.61938C98.4878 7.65938 99.9878 6.60938 102.268 6.60938C105.808 6.60938 107.488 9.15937 107.488 12.5494V21.9994H101.488V13.4194C101.488 11.9194 100.918 11.1994 99.8378 11.1994C98.7278 11.1994 98.0078 11.9494 98.0078 13.3294V21.9994H92.0078Z" fill="black"/>
<path d="M74.6777 21.9994V7.11937H80.6177V7.47937C80.6177 7.80937 80.6177 8.13938 80.5277 8.61938C81.1577 7.65938 82.6577 6.60938 84.9377 6.60938C88.4777 6.60938 90.1577 9.15937 90.1577 12.5494V21.9994H84.1577V13.4194C84.1577 11.9194 83.5877 11.1994 82.5077 11.1994C81.3977 11.1994 80.6777 11.9494 80.6777 13.3294V21.9994H74.6777Z" fill="black"/>
<path d="M66.6935 22V7.12H72.6935V22H66.6935ZM66.6035 5.56V1H72.8435V5.56H66.6035Z" fill="black"/>
<path d="M52.279 22.5694C47.689 22.5694 44.209 19.7194 44.209 14.5894C44.209 9.66938 47.449 6.60938 52.279 6.60938C57.289 6.60938 60.169 9.84937 60.169 14.9494V15.8794H50.209C50.239 17.3494 51.289 18.2194 52.339 18.2194C53.209 18.2194 53.929 17.8594 54.139 16.9594H60.109C59.749 20.1094 56.839 22.5694 52.279 22.5694ZM54.079 12.5194C54.079 11.3194 53.209 10.6594 52.249 10.6594C51.139 10.6594 50.299 11.4094 50.179 12.5194H54.079Z" fill="black"/>
<path d="M28.5918 22V1H34.5918V11.23C34.8918 10.69 35.2218 10.27 35.7018 9.73L37.9218 7.12H45.3318L39.6018 13L45.3918 22H38.2218L35.6118 17.08L34.5918 18.13V22H28.5918Z" fill="black"/>
<path d="M20.6076 22V7.12H26.6076V22H20.6076ZM20.5176 5.56V1H26.7576V5.56H20.5176Z" fill="black"/>
<path d="M0.650391 22V1H10.4604C14.9604 1 18.6804 2.56 18.6804 6.43C18.6804 8.74 17.3304 10.45 14.9604 11.08C17.3604 11.5 19.3104 13.12 19.3104 15.79C19.3104 19.75 16.2204 22 10.1604 22H0.650391ZM10.3404 16.93C11.9904 16.93 12.7404 16.39 12.7404 15.31C12.7404 14.2 11.9904 13.72 10.3404 13.72H6.86039V16.93H10.3404ZM10.1304 9.07C11.4804 9.07 12.2004 8.62 12.2004 7.54C12.2004 6.55 11.5104 6.07 10.1304 6.07H6.86039V9.07H10.1304Z" fill="black"/>
</svg>
